<svg xmlns:dc="http://purl.org/dc/elements/1.1/" xmlns:cc="http://creativecommons.org/ns#" xmlns:rdf="http://www.w3.org/1999/02/22-rdf-syntax-ns#" xmlns:svg="http://www.w3.org/2000/svg" xmlns="http://www.w3.org/2000/svg" xmlns:sodipodi="http://sodipodi.sourceforge.net/DTD/sodipodi-0.dtd" xmlns:inkscape="http://www.inkscape.org/namespaces/inkscape" version="1.1" x="0px" y="0px" viewBox="0 0 100 125"><g transform="translate(0,-952.36218)"><path style="color:#000000;enable-background:accumulate;" d="m 49.946139,971.36243 c -0.4196,0.009 -0.8111,0.14803 -1.1875,0.40625 l -38,30.00002 c -0.8742998,0.7021 -0.9983998,1.9978 -0.3438,2.8437 0.6451,0.8338 2.0175,0.9673 2.8438,0.3125 l 36.75,-28.99997 36.75,28.99997 c 0.8263,0.6548 2.1609,0.5162 2.8125,-0.3125 0.6468,-0.8225 0.5772,-2.1888 -0.3125,-2.8437 l -16.25,-12.84377 0,-17.5625 -8,0 0,11.25 -13.75,-10.84375 c -0.4451,-0.29323 -0.8929,-0.415 -1.3125,-0.40625 z m 0.062,8 -27,20.99997 0,33 17,0 0,-10 c 0,-5.54 4.46,-10 10,-10 5.54,0 10,4.46 10,10 l 0,10 17,0 0,-33 -27,-20.99997 z" fill="#ffffff" stroke="none" marker="none" visibility="visible" display="inline" overflow="visible"/></g></svg>
