<svg xmlns="http://www.w3.org/2000/svg" xmlns:xlink="http://www.w3.org/1999/xlink" version="1.1" x="0px" y="0px" viewBox="0 0 100 125" enable-background="new 0 0 100 100" xml:space="preserve"><g><g><circle fill="none" cx="50.56" cy="29.3" r="0.158"/><rect x="22.646" y="31.918" fill="none" width="55.625" height="34.085"/><path fill="none" d="M81.767,31.474c0-2.023-1.662-3.67-3.705-3.67H22.189c-2.042,0-3.704,1.647-3.704,3.67v37.37h63.282V31.474z     M50.56,28.089c0.668,0,1.212,0.544,1.212,1.211c0,0.669-0.544,1.212-1.212,1.212c-0.669,0-1.213-0.544-1.213-1.212    C49.347,28.633,49.892,28.089,50.56,28.089z M79.324,67.058H21.591V30.864h57.733V67.058z"/><path fill="none" d="M58.08,69.898v0.199c0,0.814-1.122,1.081-2.807,1.231c-1.235,0.11-2.698,0.133-3.708,0.133h0l-0.756-0.004    l-0.75,0.004c-6.52,0-6.52-0.821-6.52-1.364v-0.199H17.431H6.085c0.261,2.122,2.104,2.297,2.698,2.297l0.065-0.001l82.275-0.001    l0.094,0.002c0.205,0,0.924-0.029,1.564-0.406c0.65-0.381,1.03-1.016,1.135-1.891H82.821H58.08z"/><path d="M82.821,68.844v-37.37c0-2.605-2.135-4.724-4.759-4.724H22.189c-2.624,0-4.758,2.119-4.758,4.724v37.37H5v0.527    c0,2.862,2.038,3.878,3.783,3.878c0.057,0,0.096-0.002,0.102-0.002l82.206-0.001c0,0,0.044,0.003,0.125,0.003    c0.349,0,1.252-0.054,2.099-0.551C94.084,72.247,95,71.303,95,69.371v-0.527H82.821z M18.485,31.474    c0-2.023,1.662-3.67,3.704-3.67h55.873c2.043,0,3.705,1.647,3.705,3.67v37.37H18.485V31.474z M92.781,71.789    c-0.64,0.377-1.359,0.406-1.564,0.406l-0.094-0.002L8.848,72.195l-0.065,0.001c-0.594,0-2.437-0.176-2.698-2.297h11.346H43.54    v0.199c0,0.543,0,1.364,6.52,1.364l0.75-0.004l0.756,0.004h0c1.009,0,2.472-0.023,3.708-0.133c1.685-0.15,2.807-0.417,2.807-1.231    v-0.199h24.741h11.095C93.81,70.773,93.43,71.408,92.781,71.789z"/><path d="M21.591,67.058h57.733V30.864H21.591V67.058z M22.646,31.918H78.27v34.085H22.646V31.918z"/><path d="M50.56,30.512c0.668,0,1.212-0.544,1.212-1.212c0-0.668-0.544-1.211-1.212-1.211c-0.669,0-1.213,0.544-1.213,1.211    C49.347,29.969,49.892,30.512,50.56,30.512z M50.56,29.143c0.087,0,0.158,0.07,0.158,0.157c0,0.087-0.071,0.158-0.158,0.158    c-0.088,0-0.159-0.071-0.159-0.158C50.401,29.214,50.473,29.143,50.56,29.143z"/></g></g></svg>
