<svg xmlns="http://www.w3.org/2000/svg" data-name="Layer 1" viewBox="0 0 100 125" x="0px" y="0px"><title>ALL</title><path d="M9.5,19.5v61h81v-61Zm80,60h-79V28.25h79Zm0-52.25h-79V20.5h79Z"/><circle cx="14.22" cy="23.95" r="1.25"/><circle cx="18.72" cy="23.95" r="1.25"/><circle cx="23.22" cy="23.95" r="1.25"/><rect x="37.5" y="68.5" width="25" height="1"/><rect x="42.5" y="71.5" width="15" height="1"/><circle cx="42.86" cy="46.36" r="2.32"/><path d="M70.5,37.5h-41v26h41Zm-21,25H37.06l6.2-6.2ZM46,57.66l5.85-5.85L62.58,62.5H50.88ZM69.5,62.5H63.88l.06-.06-12-12L45.33,57l-2.07-2.07L35.7,62.44l.06.06H30.5v-24h39Z"/><polygon points="77.36 54.97 78.07 55.68 82.58 51.17 78.04 46.63 77.33 47.34 81.17 51.17 77.36 54.97"/><polygon points="22.73 54.97 18.89 51.14 22.7 47.34 21.99 46.63 17.48 51.14 22.02 55.68 22.73 54.97"/></svg>
