<svg xmlns="http://www.w3.org/2000/svg" data-name="Layer 1" viewBox="0 0 100 125" x="0px" y="0px"><title>ALL</title><path d="M14.5,71.5h41v-26h-41Zm1-25h39v24h-39Z"/><path d="M29.5,65.14,41,58.5,29.5,51.86Zm1-11.55L39,58.5l-8.5,4.91Z"/><rect x="15.25" y="35.5" width="37.5" height="1"/><rect x="15.25" y="39" width="27" height="1"/><rect x="72.25" y="48" width="12.5" height="1"/><rect x="72.25" y="51" width="7.5" height="1"/><path d="M65.17,45.88a4,4,0,1,0,4,4A4,4,0,0,0,65.17,45.88Zm0,7a3,3,0,1,1,3-3A3,3,0,0,1,65.17,52.88Z"/><rect x="72.25" y="60" width="12.5" height="1"/><rect x="72.25" y="63" width="7.5" height="1"/><path d="M65.17,57.88a4,4,0,1,0,4,4A4,4,0,0,0,65.17,57.88Zm0,7a3,3,0,1,1,3-3A3,3,0,0,1,65.17,64.88Z"/><path d="M9.5,19.5v61h81v-61Zm80,1v6.75h-79V20.5Zm-79,59V28.25h79V79.5Z"/><circle cx="14.22" cy="23.91" r="1.25"/><circle cx="18.72" cy="23.91" r="1.25"/><circle cx="23.22" cy="23.91" r="1.25"/></svg>
