<svg xmlns="http://www.w3.org/2000/svg" xmlns:xlink="http://www.w3.org/1999/xlink" version="1.1" x="0px" y="0px" viewBox="0 0 100 125" enable-background="new 0 0 100 100" xml:space="preserve"><path d="M88.254,61.167c0-2.94-2.393-5.333-5.334-5.333c-2.94,0-5.332,2.393-5.332,5.333c0,2.941,2.392,5.333,5.332,5.333  C85.861,66.5,88.254,64.107,88.254,61.167z M82.92,64.5c-1.837,0-3.332-1.496-3.332-3.333s1.495-3.333,3.332-3.333  c1.838,0,3.334,1.495,3.334,3.333S84.758,64.5,82.92,64.5z M93.004,78.093h-15.25c-0.553,0-1,0.448-1,1s0.447,1,1,1h15.25  c0.663,0,0.996,0.794,0.996,1.239c0,0.188,0,0.761-0.996,0.761H73.791c0.734-2.803,3.997-8.76,10.023-8.76  c3.478,0,5.289,1.511,5.368,1.579c0.416,0.36,1.043,0.319,1.406-0.095c0.364-0.415,0.324-1.046-0.091-1.411  c-0.055-0.048-0.859-0.717-2.32-1.283c4.08-1.966,6.91-6.131,6.91-10.956C95.088,54.458,89.63,49,82.922,49  c-6.709,0-12.168,5.458-12.168,12.167c0,5.249,3.348,9.718,8.015,11.421c-4.872,2.569-7.139,8.396-7.139,10.506c0,0.552,0.447,1,1,1  h20.374c2.059,0,2.996-1.431,2.996-2.761C96,79.768,94.796,78.093,93.004,78.093z M72.754,61.167C72.754,55.561,77.315,51,82.922,51  c5.605,0,10.166,4.561,10.166,10.167s-4.561,10.167-10.166,10.167C77.315,71.333,72.754,66.772,72.754,61.167z M72,69.917  c0-0.552-0.447-1-1-1H14.583c-0.534,0-1.115-0.466-1.583-1.259v-5.678h55c0.553,0,1-0.448,1-1s-0.447-1-1-1H13v-40.47  c0.464-0.789,1.074-1.329,1.707-1.509h70.586c0.633,0.181,1.243,0.721,1.707,1.509V47c0,0.552,0.447,1,1,1s1-0.448,1-1V19.25  c0-0.163-0.04-0.323-0.115-0.467c-0.782-1.482-1.936-2.462-3.247-2.758C85.565,16.008,85.491,16,85.417,16H14.583  c-0.074,0-0.148,0.008-0.221,0.025c-1.312,0.297-2.465,1.276-3.247,2.758C11.04,18.927,11,19.087,11,19.25v48.667  c0,0.163,0.04,0.323,0.115,0.467c0.851,1.61,2.114,2.533,3.468,2.533h29.311l-0.633,6.8c-0.002,0.041-0.215,4.066-7.033,4.284  c-0.546,0.018-0.977,0.469-0.968,1.016c0.009,0.546,0.454,0.984,1,0.984h27.481c0.546,0,0.991-0.438,1-0.984  c0.009-0.546-0.422-0.998-0.968-1.016c-6.728-0.215-7.023-4.128-7.036-4.343l-0.63-6.741H71C71.553,70.917,72,70.469,72,69.917z   M57.154,82H42.851c2.287-1.8,2.406-4.157,2.405-4.157l0.646-6.926h8.196l0.644,6.867C54.743,77.821,54.862,80.195,57.154,82z"/><text x="0" y="115" fill="#000000" font-size="5px" font-weight="bold" font-family="'Helvetica Neue', Helvetica, Arial-Unicode, Arial, Sans-serif">Created by Thengakola</text><text x="0" y="120" fill="#000000" font-size="5px" font-weight="bold" font-family="'Helvetica Neue', Helvetica, Arial-Unicode, Arial, Sans-serif">from the Noun Project</text></svg>