<svg xmlns:dc="http://purl.org/dc/elements/1.1/" xmlns:cc="http://creativecommons.org/ns#" xmlns:rdf="http://www.w3.org/1999/02/22-rdf-syntax-ns#" xmlns:svg="http://www.w3.org/2000/svg" xmlns="http://www.w3.org/2000/svg" xmlns:sodipodi="http://sodipodi.sourceforge.net/DTD/sodipodi-0.dtd" xmlns:inkscape="http://www.inkscape.org/namespaces/inkscape" version="1.1" x="0px" y="0px" viewBox="0 0 100 125"><g transform="translate(0,-952.36218)"><path style="text-indent:0;text-transform:none;direction:ltr;block-progression:tb;baseline-shift:baseline;color:#000000;enable-background:accumulate;" d="m 13,966.36217 c -3.3067,0 -6,2.6933 -6,6 l 0,60.00003 c 0,3.3067 2.6933,6 6,6 l 74,0 c 3.3067,0 6,-2.6933 6,-6 l 0,-60.00003 c 0,-3.3067 -2.6933,-6 -6,-6 l -74,0 z m 0,2 74,0 c 2.2333,0 4,1.7667 4,4 l 0,14 -82,0 0,-14 c 0,-2.2333 1.7667,-4 4,-4 z m 5,5 c -2.1973,0 -4,1.8027 -4,4 0,2.1973 1.8027,4 4,4 2.1973,0 4,-1.8027 4,-4 0,-2.1973 -1.8027,-4 -4,-4 z m 13,0 c -2.1973,0 -4,1.8027 -4,4 0,2.1973 1.8027,4 4,4 2.1973,0 4,-1.8027 4,-4 0,-2.1973 -1.8027,-4 -4,-4 z m 13,0 c -2.1973,0 -4,1.8027 -4,4 0,2.1973 1.8027,4 4,4 2.1973,0 4,-1.8027 4,-4 0,-2.1973 -1.8027,-4 -4,-4 z m -26,2 c 1.1164,0 2,0.8835 2,2 0,1.1165 -0.8836,2 -2,2 -1.1164,0 -2,-0.8835 -2,-2 0,-1.1165 0.8836,-2 2,-2 z m 13,0 c 1.1164,0 2,0.8835 2,2 0,1.1165 -0.8836,2 -2,2 -1.1164,0 -2,-0.8835 -2,-2 0,-1.1165 0.8836,-2 2,-2 z m 13,0 c 1.1164,0 2,0.8835 2,2 0,1.1165 -0.8836,2 -2,2 -1.1164,0 -2,-0.8835 -2,-2 0,-1.1165 0.8836,-2 2,-2 z m -35,13 82,0 0,44.00003 c 0,2.2333 -1.7667,4 -4,4 l -74,0 c -2.2333,0 -4,-1.7667 -4,-4 l 0,-44.00003 z m 44.875,9.00002 c -0.3966,0.051 -0.7469,0.3308 -0.8438,0.7188 l -8,28.00001 c -0.139,0.5073 0.2115,1.111 0.7188,1.25 0.5073,0.139 1.0797,-0.2116 1.2188,-0.7188 l 8,-28.00001 c 0.1939,-0.6389 -0.4323,-1.3413 -1.0938,-1.25 z M 39,1001.331 c -0.187,0 -0.3735,0.056 -0.5312,0.1562 l -16,10 c -0.6182,0.3629 -0.6387,1.3066 0,1.7188 l 16,10 c 0.4501,0.2823 1.1269,0.1392 1.4062,-0.3126 0.2794,-0.4519 0.11,-1.1298 -0.3438,-1.4062 l -14.625,-9.125 14.625,-9.1562 c 0.3925,-0.216 0.6222,-0.7253 0.5,-1.1563 -0.1221,-0.4309 -0.5837,-0.7407 -1.0312,-0.7187 z m 21.9688,0 c -0.4421,-0.01 -0.8549,0.3229 -0.9688,0.75 -0.1139,0.4271 0.082,0.9109 0.4688,1.125 l 14.625,9.1562 -14.625,9.125 c -0.4538,0.2764 -0.5919,0.9543 -0.3126,1.4062 0.2794,0.4519 0.9249,0.5949 1.375,0.3126 l 16,-10 c 0.6315,-0.3916 0.5924,-1.3662 0,-1.7188 l -16,-10 c -0.1666,-0.1061 -0.365,-0.1611 -0.5624,-0.1562 z" fill="#000000" fill-opacity="1" fill-rule="nonzero" stroke="none" marker="none" visibility="visible" display="inline" overflow="visible"/></g></svg>
