<svg xmlns="http://www.w3.org/2000/svg" xmlns:xlink="http://www.w3.org/1999/xlink" version="1.1" x="0px" y="0px" viewBox="0 0 100 125" style="enable-background:new 0 0 100 100;" xml:space="preserve">
  <g>
    <path d="M32.4,10.1 32.4,11.7 66.9,31.6 66.9,87.1 68.3,87.9 68.3,30.8  z"/>
    <path d="M31.7,74.1l26.9,15.5l0.4-0.2v0l5.8-2.9l0.2-0.1V32.6L31.7,13.3V74.1z M59,87.2l-0.1-3.9l3.7,2.2L59,87.2z M33.1,15.7   l30.5,17.6v51.1l-6.3-3.6l0.2,6.6L33.1,73.3V15.7z"/>
    <path class="color" d="M59.1,53.8L38.6,42v18l20.5,11.8V53.8z M58.2,70L39.6,59.3v-4.7l10.1,1l2.6,6.7l5.9,0.1V70z M58.2,61l-5.5-0.1l-2.6-6.6   l-10.5-1.1v-9.4l18.6,10.7V61z"/>
    <path class="color" d="M54.7,58.6c0.9,0.5,1.7,0,1.7-1.3c0-1.2-0.8-2.7-1.7-3.2c-0.9-0.5-1.7,0-1.7,1.3C53,56.7,53.8,58.1,54.7,58.6z M54.7,55.4   c0.4,0.2,0.7,0.9,0.7,1.4c0,0.5-0.3,0.8-0.7,0.6C54.3,57.2,54,56.5,54,56C54,55.4,54.3,55.2,54.7,55.4z"/>
  </g>
</svg>
