<svg xmlns="http://www.w3.org/2000/svg" xmlns:xlink="http://www.w3.org/1999/xlink" version="1.1" x="0px" y="0px" viewBox="0 0 100 125" style="enable-background:new 0 0 100 100;" xml:space="preserve"><g><g><polygon points="36.2,10.1 36.2,11.7 70.7,31.6 70.7,87.1 72.1,87.9 72.1,30.8   "/></g><g><path d="M35.5,74.1l26.9,15.5l0.4-0.2v0l5.8-2.9l0,0l0.2-0.1V32.6L35.5,13.3V74.1z M62.6,83.3l3.7,2.2l-3.6,1.8L62.6,83.3z     M36.9,15.7l30.5,17.6v51.1l-6.3-3.6l0.2,6.6L36.9,73.3V15.7z"/></g></g><g><g>
<path class="color" d="M49.3,49.4l1.3,0.8v1.5l-1.3-0.8V49.4z M44.4,55c0.2-0.1,0.3-0.5,0.1-0.9l3.3-1.9c-1.4,2.8-0.9,7.4,1.4,11.8V65l1.4,0.8    v-1.6l-0.9-0.5c-2.5-4.8-2.7-9.9-0.3-12.1l1.6,0.9v-1.9c3.1-0.9,7.4,1.8,10.3,6.3v1l1.4,0.8v-1.6l-1-0.6c-2.6-4.1-6.3-6.9-9.5-7.1    l3.3-1.9c0.3,0.3,0.6,0.4,0.8,0.3c0.3-0.2,0.3-0.7,0-1.2c-0.3-0.5-0.7-0.7-1-0.6c-0.2,0.1-0.3,0.5-0.1,0.9l-4.6,2.7c0,0,0,0,0,0    l0,0l-1.9-1.1v2.2l0,0c0,0,0,0,0,0l-4.6,2.7c-0.3-0.3-0.6-0.4-0.8-0.3c-0.3,0.2-0.3,0.7,0,1.2C43.6,54.9,44.1,55.1,44.4,55z"/></g></g></svg>
