<svg xmlns="http://www.w3.org/2000/svg" xmlns:xlink="http://www.w3.org/1999/xlink" version="1.1" x="0px" y="0px" viewBox="0 0 65 81.25" enable-background="new 0 0 65 65" xml:space="preserve">
  <g>
    <path d="M-0.2,4.7v55.6h65.5V4.7H-0.2z M63.7,6.2v6.2H1.3V6.2H63.7z M1.3,58.8V13.9h62.5v44.9H1.3z"/>
    <rect x="56.9" y="8.6" width="1.5" height="1.5"/>
    <rect x="53.1" y="8.6" width="1.5" height="1.5"/>
    <rect x="49.3" y="8.6" width="1.5" height="1.5"/>
    <rect x="6.1" y="8.6" width="38.5" height="1.5"/>
    <polygon points="54.5,27.2 57.7,30.2 54.5,33.3 55.5,34.4 59.9,30.2 55.5,26.1  "/>
    <polygon points="9.5,26.1 5.1,30.2 9.5,34.4 10.5,33.3 7.3,30.2 10.5,27.2  "/>
    <path d="M50.6,18.6H14.8v23.2h35.8V18.6z M49.1,20.1v16.9l-7.8-7.5l-3.6,3.5l-5.1-5.8l-9,8.7l-3.6-3.5l-3.6,3.4V20.1H49.1z    M16.3,40.3V38l3.6-3.4l3.6,3.5l9-8.6l5.1,5.8l3.7-3.6l7.8,7.5v1.2H16.3z"/>
    <path d="M25.7,26.7c0-1.4-1.1-2.5-2.5-2.5c-1.4,0-2.5,1.1-2.5,2.5s1.1,2.5,2.5,2.5C24.6,29.2,25.7,28.1,25.7,26.7z M22.3,26.7   c0-0.5,0.4-1,1-1c0.5,0,1,0.4,1,1c0,0.5-0.4,1-1,1C22.7,27.7,22.3,27.3,22.3,26.7z"/>
    <rect x="22.5" y="22.1" width="1.5" height="1.4"/>
    <rect x="19.8" y="23.2" transform="matrix(0.7072 0.707 -0.707 0.7072 22.9396 -7.4644)" width="1.4" height="1.5"/>
    <rect x="18.6" y="26" width="1.4" height="1.5"/>
    <rect x="19.7" y="28.8" transform="matrix(-0.707 -0.7072 0.7072 -0.707 14.0897 64.8604)" width="1.5" height="1.4"/>
    <rect x="22.5" y="30" width="1.5" height="1.4"/>
    <rect x="25.3" y="28.8" transform="matrix(-0.7071 -0.7071 0.7071 -0.7071 23.5711 68.7855)" width="1.4" height="1.5"/>
    <rect x="26.5" y="26" width="1.4" height="1.5"/>
    <rect x="25.3" y="23.3" transform="matrix(0.7071 0.7071 -0.7071 0.7071 24.5681 -11.3879)" width="1.5" height="1.4"/>
    <path d="M49.5,48.5C44,46.9,39,46.1,34.9,46.1c-4.4,0-6.9,0.9-8,1.5C26,46.5,25,46,25,46c-0.8-0.5-1.5-0.7-2.3-0.7   c-1.9,0-3.3,1.2-4.3,2.2c-0.4,0.4-1,0.6-1.7,0.6c-0.6,0-1.1-0.2-1.1-0.2l-1-0.4l0,1.1c0,0.1,0,5,5.4,6.5c0.8,0.2,1.5,0.3,2.2,0.3   c2.7,0,4.1-1.6,4.8-2.5c1.1,0.5,3.7,1.4,8.1,1.4c4.1,0,9-0.8,14.4-2.3c0.5-0.2,1.3-0.7,1.3-1.8C50.8,49.1,49.9,48.6,49.5,48.5z    M49.1,50.7c-5.3,1.5-10,2.2-14,2.2c-5.7,0-7.9-1.5-8-1.6l-0.8-0.6L26,51.7c0,0.1-1,2.3-3.8,2.3c-0.6,0-1.2-0.1-1.8-0.3   c-3-0.8-3.9-2.9-4.2-4.1c0.2,0,0.3,0,0.5,0c1.1,0,2-0.4,2.7-1c1.2-1.2,2.3-1.7,3.3-1.7c0.5,0,1,0.2,1.6,0.5c0,0,1,0.5,1.6,1.5   l0.4,0.7l0.7-0.5c0,0,2.2-1.6,7.8-1.6c4,0,8.8,0.8,14.2,2.4c0.2,0.1,0.2,0.2,0.2,0.4C49.3,50.6,49.1,50.7,49.1,50.7z"/>
    <rect x="37.1" y="49.6" width="1.5" height="1.5"/>
    <rect x="33.6" y="49.6" width="1.5" height="1.5"/>
  </g>
</svg>
