<svg xmlns="http://www.w3.org/2000/svg" xmlns:xlink="http://www.w3.org/1999/xlink" version="1.1" x="0px" y="0px" viewBox="0 0 100 125" style="enable-background:new 0 0 100 100;" xml:space="preserve">
  <g>
      <path class="inner" d="M45.1,26.2l-8.9-5.1v10.4l8.9,5.1V26.2z M43.7,34.2l-6-3.5v-7.2l6,3.5V34.2z
                              M37,37.3 60.6,50.9 60.6,49.3 37,35.7   z
                              M37,43.1 60.6,56.8 60.6,55.2 37,41.5   z
                              M37,49.3 60.6,63 60.6,61.4 37,47.7   z
                              M37,54.6 60.6,68.3 60.6,66.7 37,53   z
                              M60.6,73 37,59.4 37,61 60.6,74.6   z"/>
        <path class="outter" d="M32.4,10.2 32.4,11.8 66.9,31.7 66.9,87.3 68.3,88.1 68.3,30.9   z
                             M31.7,74.2l26.9,15.5l0.4-0.2v0l5.8-2.9l0,0l0.2-0.1V32.7L31.7,13.4V74.2z M58.8,83.4l3.7,2.2L59,87.4L58.8,83.4z     M33.1,15.9l30.5,17.6v51.1L57.4,81l0.2,6.6L33.1,73.5V15.9z"/>
  </g>
</svg>
